<svg viewBox="0 0 320 320" xmlns="http://www.w3.org/2000/svg">
  <defs>
    <linearGradient id="bgLin" x1="0.78" y1="0" x2="0.22" y2="1">
      <stop offset="0%" stop-color="#14161c"/><stop offset="32%" stop-color="#1c2027"/>
      <stop offset="70%" stop-color="#0b0c10"/><stop offset="100%" stop-color="#040405"/>
    </linearGradient>
    <radialGradient id="hi" cx="0.3" cy="0.06" r="0.9">
      <stop offset="0%" stop-color="#ffffff" stop-opacity="0.16"/>
      <stop offset="42%" stop-color="#ffffff" stop-opacity="0"/>
    </radialGradient>
    <linearGradient id="sheen" x1="0" y1="0" x2="0" y2="1">
      <stop offset="0%" stop-color="#ffffff" stop-opacity="0.14"/>
      <stop offset="30%" stop-color="#ffffff" stop-opacity="0"/>
    </linearGradient>
    <linearGradient id="shade" x1="0" y1="1" x2="0" y2="0">
      <stop offset="0%" stop-color="#000000" stop-opacity="0.42"/>
      <stop offset="26%" stop-color="#000000" stop-opacity="0"/>
    </linearGradient>
    <linearGradient id="cvCyanIcon" gradientUnits="userSpaceOnUse" x1="22" y1="26" x2="80" y2="78">
      <stop offset="0" stop-color="#A6F8FF"/><stop offset="1" stop-color="#0C7EA8"/>
    </linearGradient>
  </defs>
  <rect width="320" height="320" rx="72" fill="url(#bgLin)"/>
  <rect width="320" height="320" rx="72" fill="url(#shade)"/>
  <rect width="320" height="320" rx="72" fill="url(#hi)"/>
  <rect width="320" height="320" rx="72" fill="url(#sheen)"/>
  <rect x="1.5" y="1.5" width="317" height="317" rx="70.5" fill="none" stroke="#ffffff" stroke-opacity="0.13" stroke-width="1.5"/>
  <rect x="3.5" y="3.5" width="313" height="313" rx="68.5" fill="none" stroke="#000000" stroke-opacity="0.35" stroke-width="1"/>
  <svg x="25" y="25" width="270" height="270" viewBox="0 0 100 100">
    <g transform="translate(50 50) scale(1.5) translate(-50 -50)" fill="none" stroke="url(#cvCyanIcon)" stroke-width="7.6" stroke-linecap="round">
      <path d="M50 47 C55 39 65 38 72 42"/>
      <g transform="rotate(60 50 50)"><path d="M50 47 C55 39 65 38 72 42"/></g>
      <g transform="rotate(120 50 50)"><path d="M50 47 C55 39 65 38 72 42"/></g>
      <g transform="rotate(180 50 50)"><path d="M50 47 C55 39 65 38 72 42"/></g>
      <g transform="rotate(240 50 50)"><path d="M50 47 C55 39 65 38 72 42"/></g>
      <g transform="rotate(300 50 50)"><path d="M50 47 C55 39 65 38 72 42"/></g>
    </g>
  </svg>
</svg>
