<svg viewBox="0 0 100 100" xmlns="http://www.w3.org/2000/svg">
  <defs>
    <linearGradient id="cvCyanIcon" gradientUnits="userSpaceOnUse" x1="22" y1="26" x2="80" y2="78">
      <stop offset="0" stop-color="#A6F8FF"/><stop offset="1" stop-color="#0C7EA8"/>
    </linearGradient>
  </defs>
  <g transform="translate(50 50) scale(1.5) translate(-50 -50)" fill="none" stroke="url(#cvCyanIcon)" stroke-width="7.6" stroke-linecap="round">
    <path d="M50 47 C55 39 65 38 72 42"/>
    <g transform="rotate(60 50 50)"><path d="M50 47 C55 39 65 38 72 42"/></g>
    <g transform="rotate(120 50 50)"><path d="M50 47 C55 39 65 38 72 42"/></g>
    <g transform="rotate(180 50 50)"><path d="M50 47 C55 39 65 38 72 42"/></g>
    <g transform="rotate(240 50 50)"><path d="M50 47 C55 39 65 38 72 42"/></g>
    <g transform="rotate(300 50 50)"><path d="M50 47 C55 39 65 38 72 42"/></g>
  </g>
</svg>
